<mxfile host="app.diagrams.net" modified="2024-06-27T17:06:01.991Z" agent="Mozilla/5.0 (Macintosh; Intel Mac OS X 10_15_7) AppleWebKit/537.36 (KHTML, like Gecko) Chrome/126.0.0.0 Safari/537.36" etag="Z5giYeoodSpCj7b8nhRA" version="24.6.4" type="github">
  <diagram name="Page-1" id="XY-2lsHNYyr696W3sZto">
    <mxGraphModel dx="1355" dy="530" grid="1" gridSize="10" guides="1" tooltips="1" connect="1" arrows="1" fold="1" page="1" pageScale="1" pageWidth="850" pageHeight="1100" math="0" shadow="0">
      <root>
        <mxCell id="0" />
        <mxCell id="1" parent="0" />
        <mxCell id="m9mAsR9hlOxoBa20JDK_-36" value="" style="rounded=0;whiteSpace=wrap;html=1;fillColor=#dae8fc;strokeColor=#6c8ebf;" vertex="1" parent="1">
          <mxGeometry y="30" width="1080" height="270" as="geometry" />
        </mxCell>
        <mxCell id="m9mAsR9hlOxoBa20JDK_-37" value="" style="rounded=0;whiteSpace=wrap;html=1;fillColor=#d5e8d4;strokeColor=#82b366;" vertex="1" parent="1">
          <mxGeometry y="300" width="1080" height="270" as="geometry" />
        </mxCell>
        <mxCell id="m9mAsR9hlOxoBa20JDK_-12" style="edgeStyle=orthogonalEdgeStyle;rounded=0;orthogonalLoop=1;jettySize=auto;html=1;exitX=1;exitY=0.5;exitDx=0;exitDy=0;" edge="1" parent="1" source="m9mAsR9hlOxoBa20JDK_-10" target="m9mAsR9hlOxoBa20JDK_-1">
          <mxGeometry relative="1" as="geometry" />
        </mxCell>
        <mxCell id="m9mAsR9hlOxoBa20JDK_-10" value="" style="rounded=0;whiteSpace=wrap;html=1;" vertex="1" parent="1">
          <mxGeometry x="10" y="60" width="80" height="150" as="geometry" />
        </mxCell>
        <mxCell id="m9mAsR9hlOxoBa20JDK_-9" value="Documents" style="rounded=0;whiteSpace=wrap;html=1;" vertex="1" parent="1">
          <mxGeometry x="10" y="40" width="80" height="20" as="geometry" />
        </mxCell>
        <mxCell id="m9mAsR9hlOxoBa20JDK_-14" style="edgeStyle=orthogonalEdgeStyle;rounded=0;orthogonalLoop=1;jettySize=auto;html=1;" edge="1" parent="1" source="m9mAsR9hlOxoBa20JDK_-1" target="m9mAsR9hlOxoBa20JDK_-2">
          <mxGeometry relative="1" as="geometry" />
        </mxCell>
        <mxCell id="m9mAsR9hlOxoBa20JDK_-1" value="Read" style="rounded=1;whiteSpace=wrap;html=1;" vertex="1" parent="1">
          <mxGeometry x="150" y="105" width="110" height="60" as="geometry" />
        </mxCell>
        <mxCell id="m9mAsR9hlOxoBa20JDK_-15" style="edgeStyle=orthogonalEdgeStyle;rounded=0;orthogonalLoop=1;jettySize=auto;html=1;" edge="1" parent="1" source="m9mAsR9hlOxoBa20JDK_-2" target="m9mAsR9hlOxoBa20JDK_-3">
          <mxGeometry relative="1" as="geometry" />
        </mxCell>
        <mxCell id="m9mAsR9hlOxoBa20JDK_-16" value="Split,&lt;div&gt;Chunks,&lt;/div&gt;&lt;div&gt;Embeddings&lt;/div&gt;" style="edgeLabel;html=1;align=center;verticalAlign=middle;resizable=0;points=[];" vertex="1" connectable="0" parent="m9mAsR9hlOxoBa20JDK_-15">
          <mxGeometry x="-0.3333" relative="1" as="geometry">
            <mxPoint as="offset" />
          </mxGeometry>
        </mxCell>
        <mxCell id="m9mAsR9hlOxoBa20JDK_-2" value="Transform" style="rounded=1;whiteSpace=wrap;html=1;" vertex="1" parent="1">
          <mxGeometry x="360" y="105" width="120" height="60" as="geometry" />
        </mxCell>
        <mxCell id="m9mAsR9hlOxoBa20JDK_-3" value="Write" style="rounded=1;whiteSpace=wrap;html=1;" vertex="1" parent="1">
          <mxGeometry x="600" y="105" width="120" height="60" as="geometry" />
        </mxCell>
        <mxCell id="m9mAsR9hlOxoBa20JDK_-24" style="edgeStyle=orthogonalEdgeStyle;rounded=0;orthogonalLoop=1;jettySize=auto;html=1;" edge="1" parent="1" source="m9mAsR9hlOxoBa20JDK_-4" target="m9mAsR9hlOxoBa20JDK_-22">
          <mxGeometry relative="1" as="geometry" />
        </mxCell>
        <mxCell id="m9mAsR9hlOxoBa20JDK_-25" value="Top K Chunks" style="edgeLabel;html=1;align=center;verticalAlign=middle;resizable=0;points=[];" vertex="1" connectable="0" parent="m9mAsR9hlOxoBa20JDK_-24">
          <mxGeometry x="-0.1642" y="3" relative="1" as="geometry">
            <mxPoint as="offset" />
          </mxGeometry>
        </mxCell>
        <mxCell id="m9mAsR9hlOxoBa20JDK_-4" value="Vector DB" style="shape=cylinder3;whiteSpace=wrap;html=1;boundedLbl=1;backgroundOutline=1;size=15;" vertex="1" parent="1">
          <mxGeometry x="390" y="255" width="60" height="80" as="geometry" />
        </mxCell>
        <mxCell id="m9mAsR9hlOxoBa20JDK_-6" value="" style="shape=image;html=1;verticalAlign=top;verticalLabelPosition=bottom;labelBackgroundColor=#ffffff;imageAspect=0;aspect=fixed;image=https://cdn1.iconfinder.com/data/icons/bootstrap-vol-3/16/filetype-pdf-128.png" vertex="1" parent="1">
          <mxGeometry x="35" y="180" width="30" height="30" as="geometry" />
        </mxCell>
        <mxCell id="m9mAsR9hlOxoBa20JDK_-7" value="" style="dashed=0;outlineConnect=0;html=1;align=center;labelPosition=center;verticalLabelPosition=bottom;verticalAlign=top;shape=mxgraph.weblogos.json" vertex="1" parent="1">
          <mxGeometry x="35" y="130" width="30" height="40" as="geometry" />
        </mxCell>
        <mxCell id="m9mAsR9hlOxoBa20JDK_-8" value="" style="shape=image;html=1;verticalAlign=top;verticalLabelPosition=bottom;labelBackgroundColor=#ffffff;imageAspect=0;aspect=fixed;image=https://cdn2.iconfinder.com/data/icons/simple-files/128/csv1.png" vertex="1" parent="1">
          <mxGeometry x="30" y="80" width="40" height="40" as="geometry" />
        </mxCell>
        <mxCell id="m9mAsR9hlOxoBa20JDK_-17" value="Store Embeddings" style="edgeStyle=orthogonalEdgeStyle;rounded=0;orthogonalLoop=1;jettySize=auto;html=1;entryX=1;entryY=0.5;entryDx=0;entryDy=0;entryPerimeter=0;exitX=1;exitY=0.5;exitDx=0;exitDy=0;" edge="1" parent="1" source="m9mAsR9hlOxoBa20JDK_-3" target="m9mAsR9hlOxoBa20JDK_-4">
          <mxGeometry relative="1" as="geometry" />
        </mxCell>
        <mxCell id="m9mAsR9hlOxoBa20JDK_-20" style="edgeStyle=orthogonalEdgeStyle;rounded=0;orthogonalLoop=1;jettySize=auto;html=1;" edge="1" parent="1" source="m9mAsR9hlOxoBa20JDK_-18" target="m9mAsR9hlOxoBa20JDK_-19">
          <mxGeometry relative="1" as="geometry" />
        </mxCell>
        <mxCell id="m9mAsR9hlOxoBa20JDK_-18" value="User" style="sketch=0;outlineConnect=0;fontColor=#232F3E;gradientColor=none;fillColor=#232F3D;strokeColor=none;dashed=0;verticalLabelPosition=bottom;verticalAlign=top;align=center;html=1;fontSize=12;fontStyle=0;aspect=fixed;pointerEvents=1;shape=mxgraph.aws4.user;" vertex="1" parent="1">
          <mxGeometry x="12" y="406" width="78" height="78" as="geometry" />
        </mxCell>
        <mxCell id="m9mAsR9hlOxoBa20JDK_-23" value="" style="edgeStyle=orthogonalEdgeStyle;rounded=0;orthogonalLoop=1;jettySize=auto;html=1;" edge="1" parent="1" source="m9mAsR9hlOxoBa20JDK_-19" target="m9mAsR9hlOxoBa20JDK_-22">
          <mxGeometry relative="1" as="geometry" />
        </mxCell>
        <mxCell id="m9mAsR9hlOxoBa20JDK_-19" value="&lt;h1 style=&quot;margin-top: 0px;&quot;&gt;Prompt&lt;/h1&gt;&lt;div&gt;User Query&lt;/div&gt;&lt;div&gt;&lt;span style=&quot;white-space: pre;&quot;&gt;&#x9;&lt;/span&gt;&amp;nbsp;{ Who is the CEO of CVS}&lt;/div&gt;" style="text;html=1;whiteSpace=wrap;overflow=hidden;rounded=0;" vertex="1" parent="1">
          <mxGeometry x="130" y="390" width="180" height="110" as="geometry" />
        </mxCell>
        <mxCell id="m9mAsR9hlOxoBa20JDK_-21" value="Retrieve (Similarity Search)" style="edgeStyle=orthogonalEdgeStyle;rounded=0;orthogonalLoop=1;jettySize=auto;html=1;entryX=0;entryY=0.5;entryDx=0;entryDy=0;entryPerimeter=0;exitX=0.5;exitY=0;exitDx=0;exitDy=0;" edge="1" parent="1" source="m9mAsR9hlOxoBa20JDK_-19" target="m9mAsR9hlOxoBa20JDK_-4">
          <mxGeometry relative="1" as="geometry" />
        </mxCell>
        <mxCell id="m9mAsR9hlOxoBa20JDK_-27" style="edgeStyle=orthogonalEdgeStyle;rounded=0;orthogonalLoop=1;jettySize=auto;html=1;exitX=1;exitY=0.5;exitDx=0;exitDy=0;" edge="1" parent="1" source="m9mAsR9hlOxoBa20JDK_-22" target="m9mAsR9hlOxoBa20JDK_-26">
          <mxGeometry relative="1" as="geometry" />
        </mxCell>
        <mxCell id="m9mAsR9hlOxoBa20JDK_-22" value="Augment" style="shape=image;html=1;verticalAlign=top;verticalLabelPosition=bottom;labelBackgroundColor=#ffffff;imageAspect=0;aspect=fixed;image=https://cdn4.iconfinder.com/data/icons/evil-icons-user-interface/64/plus-128.png" vertex="1" parent="1">
          <mxGeometry x="395.5" y="420.5" width="49" height="49" as="geometry" />
        </mxCell>
        <mxCell id="m9mAsR9hlOxoBa20JDK_-29" value="" style="edgeStyle=orthogonalEdgeStyle;rounded=0;orthogonalLoop=1;jettySize=auto;html=1;" edge="1" parent="1" source="m9mAsR9hlOxoBa20JDK_-26" target="m9mAsR9hlOxoBa20JDK_-28">
          <mxGeometry relative="1" as="geometry" />
        </mxCell>
        <mxCell id="m9mAsR9hlOxoBa20JDK_-26" value="&lt;h1 style=&quot;margin-top: 0px;&quot;&gt;LLM Prompt&lt;/h1&gt;&lt;div&gt;Context&lt;/div&gt;&lt;div&gt;History information&lt;/div&gt;&lt;div&gt;Generate Response&lt;/div&gt;" style="text;html=1;whiteSpace=wrap;overflow=hidden;rounded=0;" vertex="1" parent="1">
          <mxGeometry x="480" y="390" width="160" height="110" as="geometry" />
        </mxCell>
        <mxCell id="m9mAsR9hlOxoBa20JDK_-31" value="Generate" style="edgeStyle=orthogonalEdgeStyle;rounded=0;orthogonalLoop=1;jettySize=auto;html=1;" edge="1" parent="1" source="m9mAsR9hlOxoBa20JDK_-28" target="m9mAsR9hlOxoBa20JDK_-30">
          <mxGeometry relative="1" as="geometry" />
        </mxCell>
        <mxCell id="m9mAsR9hlOxoBa20JDK_-28" value="Chat Model" style="rounded=1;whiteSpace=wrap;html=1;" vertex="1" parent="1">
          <mxGeometry x="680" y="415" width="120" height="60" as="geometry" />
        </mxCell>
        <mxCell id="m9mAsR9hlOxoBa20JDK_-30" value="Chat Response" style="rounded=1;whiteSpace=wrap;html=1;" vertex="1" parent="1">
          <mxGeometry x="880" y="415" width="120" height="60" as="geometry" />
        </mxCell>
        <mxCell id="m9mAsR9hlOxoBa20JDK_-38" value="&lt;b style=&quot;font-size: 14px;&quot;&gt;&lt;font style=&quot;font-size: 14px;&quot;&gt;ETL&lt;/font&gt;&lt;/b&gt;&lt;div style=&quot;&quot;&gt;&lt;font style=&quot;font-size: 13px;&quot;&gt;Ofline or Runtime process&lt;/font&gt;&lt;/div&gt;" style="text;html=1;align=center;verticalAlign=middle;whiteSpace=wrap;rounded=0;" vertex="1" parent="1">
          <mxGeometry x="920" y="40" width="100" height="90" as="geometry" />
        </mxCell>
        <mxCell id="m9mAsR9hlOxoBa20JDK_-40" value="&lt;span style=&quot;font-size: 14px;&quot;&gt;&lt;b&gt;Runtime&lt;/b&gt;&lt;/span&gt;" style="text;html=1;align=center;verticalAlign=middle;whiteSpace=wrap;rounded=0;" vertex="1" parent="1">
          <mxGeometry x="920" y="310" width="100" height="50" as="geometry" />
        </mxCell>
      </root>
    </mxGraphModel>
  </diagram>
</mxfile>
